Simulation
nRows=44
nColumns=15
endheader
time  TH_x TH_y TH_z SC_y  SC_z  SC_x  AC_y  AC_z  AC_x  GH_y  GH_z  GH_yy  EL_x  PS_y
0.75  0.000000  0.000000  0.000000  -33.673577904555096  4.682753078795074  20.67764366360268  59.90813556532547  -2.0947080936938645  -11.316879658902337  22.230827786416036  32.83553903523488  -18.767107558184605  19.962404962576127  0.000000
0.765  0.000000  0.000000  0.000000  -33.829147261305074  4.886893930279709  20.899282928889065  59.99101331487968  -1.7546428289897569  -11.185766953146542  22.268682591233585  33.34354461178903  -19.08036679814464  19.75757615497719  0.000000
0.78  0.000000  0.000000  0.000000  -33.98094311696293  5.092801187996189  21.12672947123977  60.06435933606238  -1.415845232547531  -11.057073958142576  22.313988969999244  33.83759632796241  -19.393541589177957  19.551209861206775  0.000000
0.7949999999999999  0.000000  0.000000  0.000000  -34.13041323419994  5.301074182584086  21.36048791123876  60.12836959032544  -1.0800288016924877  -10.930146016375213  22.367018100196113  34.31779258002208  -19.706963095851172  19.34418301745785  0.000000
0.8099999999999999  0.000000  0.000000  0.000000  -34.27717784314005  5.511604589216188  21.599811077683327  60.18360207699664  -0.7487640593411748  -10.804259228468384  22.427390169420143  34.784038107344905  -20.02027931787688  19.13723860727981  0.000000
0.825  0.000000  0.000000  0.000000  -34.42275810356704  5.724287844661736  21.845420379856144  60.23081029693452  -0.4234841499351801  -10.678700163112488  22.49422985398748  35.23622616857413  -20.332776632588487  18.930868302342564  0.000000
0.84  0.000000  0.000000  0.000000  -34.56637394791455  5.9386984291817715  22.096433188250753  60.270796667048934  -0.10558095688078917  -10.552755532470801  22.5666715354354  35.674304434466606  -20.64381249139494  18.725520741970357  0.000000
0.855  0.000000  0.000000  0.000000  -34.70940604357912  6.154846907347854  22.35339401925905  60.304516739507356  0.20354760494673732  -10.425563146962666  22.643688255619974  36.09824221744031  -20.952569531064327  18.521725797217545  0.000000
0.87  0.000000  0.000000  0.000000  -34.85108706125312  6.372403303440319  22.615244995506604  60.33296057693402  0.5025193582447027  -10.296189034483128  22.72425275945841  36.508072457745335  -21.25825187975444  18.320035636207074  0.000000
0.885  0.000000  0.000000  0.000000  -34.99288285792664  6.591454945724619  22.882380506376595  60.357318361833094  0.7900059949880326  -10.163615457385859  22.807188130764253  36.90387872621248  -21.559916820914797  18.121037620337578  0.000000
0.8999999999999999  0.000000  0.000000  0.000000  -35.13416012070345  6.8116028568720255  23.153581643612817  60.37879669142705  1.0647448794974663  -10.026825445685349  22.891314135984203  37.28585999172044  -21.856644233317965  17.925333877833662  0.000000
0.9149999999999999  0.000000  0.000000  0.000000  -35.27646884404114  7.03288702954145  23.42917913436385  60.39870218264536  1.3255804732178214  -9.88482774347528  22.97530302588587  37.654217983512126  -22.14733288665045  17.733548200108704  0.000000
0.9299999999999999  0.000000  0.000000  0.000000  -35.4190387621925  7.254969063435855  23.707812973525677  60.418276445343054  1.5715246763765398  -9.736791197283404  23.057840409598445  38.00919075624033  -22.430954696076107  17.546275291725728  0.000000
0.945  0.000000  0.000000  0.000000  -35.5633516868365  7.477896486171239  23.98962126660644  60.43874238353479  1.8018821744052338  -9.58186771636515  23.137540243024127  38.350998692127504  -22.706279212952317  17.364136388473604  0.000000
0.96  0.000000  0.000000  0.000000  -35.7086432596309  7.70120483886191  24.272936335364758  60.461175714121325  2.0162488284487665  -9.419445612794508  23.213268337627653  38.67998224333239  -22.972376505025167  17.187737304199953  0.000000
0.975  0.000000  0.000000  0.000000  -35.856410327160056  7.924745179521875  24.557581991926423  60.48650093192002  2.2146266892786017  -9.249004010861334  23.28399999745285  38.996511341776845  -23.228278557751874  17.017717697812913  0.000000
0.99  0.000000  0.000000  0.000000  -36.005750718709216  8.147917373535321  24.841588223556403  60.515266554640725  2.3973572137545003  -9.070391667948739  23.349069195593216  39.30098752847101  -23.473331320467636  16.854742667103217  0.000000
1.005  0.000000  0.000000  0.000000  -36.158071591692305  8.370713279640324  25.124581221369002  60.547796247758  2.565117739111204  -8.883578708820249  23.408077118534084  39.593760738248854  -23.707013395841564  16.69953749759042  0.000000
1.02  0.000000  0.000000  0.000000  -36.31244355582356  8.592241978383514  25.404680439385558  60.584019679752586  2.7188432609383004  -8.689123748175541  23.460945995674393  39.87530896136397  -23.928963618077244  16.55281749886651  0.000000
1.035  0.000000  0.000000  0.000000  -36.46943509299805  8.812134831229029  25.68196790400687  60.62356751412112  2.8597200107373317  -8.488341496037624  23.507303430664518  40.14590546934308  -24.13874366039436  16.415278452402685  0.000000
1.05  0.000000  0.000000  0.000000  -36.627033732836246  9.02918782860725  25.954764816049153  60.66601829953315  2.9893017390706262  -8.282871737518034  23.546488371497766  40.4058410132469  -24.33571361385219  16.287382728878665  0.000000
1.065  0.000000  0.000000  0.000000  -36.785726837901606  9.242516261647511  26.22337846118316  60.71104175489671  3.10912153290966  -8.074296322434526  23.57759692406068  40.65541332559639  -24.518966743988763  16.169615385919656  0.000000
1.08  0.000000  0.000000  0.000000  -36.94375034262646  9.450783750193668  26.48616365575622  60.7582426207566  3.2206689253891727  -7.86430757678983  23.599782904626448  40.89512926261445  -24.687722965120784  16.062430677014813  0.000000
1.095  0.000000  0.000000  0.000000  -37.101781972386625  9.653380274570237  26.74347162650315  60.8071047863395  3.3251613054086695  -7.65440750942837  23.612064442216152  41.12538762794552  -24.840973725331075  15.966310458138262  0.000000
1.1099999999999999  0.000000  0.000000  0.000000  -37.2582272706832  9.84915060490501  26.993682573967437  60.85709629468284  3.42362173756754  -7.446206790248381  23.613512583537336  41.34684103249274  -24.977956232262407  15.881607653276467  0.000000
1.125  0.000000  0.000000  0.000000  -37.41394804920067  10.03765920510784  27.237280125044087  60.907687025704135  3.516695858728748  -7.241134782150626  23.603061906759134  41.559965592217615  -25.097738400334922  15.808606296160637  0.000000
1.14  0.000000  0.000000  0.000000  -37.56708897394004  10.217871001109968  27.472671620153815  60.95823053895767  3.6048914474259024  -7.040882705257369  23.57947642063408  41.765364782178466  -25.199426494485973  15.747426317028436  0.000000
1.155  0.000000  0.000000  0.000000  -37.71750672523696  10.388716904165458  27.700190882891576  61.00830360723802  3.689071631620896  -6.847501310434636  23.54094776103672  41.96324057456063  -25.281816877743566  15.697952755786943  0.000000
1.17  0.000000  0.000000  0.000000  -37.86324473613762  10.548067006016701  27.917780207991754  61.057658133460905  3.770497541201717  -6.662707785471854  23.48640492913679  42.15382698306578  -25.344164203069838  15.660007232696314  0.000000
1.185  0.000000  0.000000  0.000000  -38.0070583819547  10.695708861170365  28.1253306820561  61.10678978881133  3.8500404223365856  -6.4868633241661335  23.41708575460769  42.33672389831881  -25.387464114234323  15.63364357106053  0.000000
1.2  0.000000  0.000000  0.000000  -38.14973356681163  10.830450136129501  28.32061895602698  61.15645893339104  3.9287128317829554  -6.3202615657872085  23.335299082502996  42.511321553932724  -25.41329702658567  15.618670202143033  0.000000
1.2149999999999999  0.000000  0.000000  0.000000  -38.29254016100411  10.950028175250901  28.503473089777437  61.20739707550853  4.008415095591682  -6.164895853871586  23.24276176803276  42.676182531906825  -25.422924507594495  15.615215520370723  0.000000
1.23  0.000000  0.000000  0.000000  -38.4334922457527  11.051950474887033  28.671098679355207  61.25974164678747  4.090593081838633  -6.022899659638017  23.142319212309214  42.82987195126415  -25.41835549733895  15.62320957242501  0.000000
1.2449999999999999  0.000000  0.000000  0.000000  -38.57324618002682  11.134727099462529  28.8229018739392  61.31409393162718  4.175936190305909  -5.8959755460769125  23.038798102627222  42.97038464679087  -25.40320868942585  15.641613151687029  0.000000
1.26  0.000000  0.000000  0.000000  -38.70839110643246  11.195304853503098  28.955839572725253  61.3702765315768  4.264931505405398  -5.787046643583784  22.93723206323437  43.09548486279945  -25.381255021470935  15.669983956974223  0.000000
1.275  0.000000  0.000000  0.000000  -38.83720161294185  11.231924920209426  29.069175750530192  61.4280444763337  4.357566146157511  -5.6996642570119915  22.84303104420515  43.20114570608228  -25.35656542212053  15.70796832018889  0.000000
1.29  0.000000  0.000000  0.000000  -38.95527965098052  11.242405065075298  29.1597971338556  61.486265768387426  4.452620180500226  -5.637063729626433  22.762500197564847  43.282898574553485  -25.33363890788854  15.754843614800569  0.000000
1.305  0.000000  0.000000  0.000000  -39.05996355090144  11.22417141683355  29.227022410244714  61.544895690132726  4.54905896156812  -5.6040239760404225  22.70220001779566  43.33459218337905  -25.31750232756981  15.809425584333654  0.000000
1.3199999999999998  0.000000  0.000000  0.000000  -39.14530747348697  11.17454425718969  29.267423580742886  61.6023898542904  4.644720365380003  -5.604792195302418  22.669097843688412  43.34927956812331  -25.313437823371043  15.87069481485147  0.000000
1.335  0.000000  0.000000  0.000000  -39.20677297386397  11.090723820718571  29.280026353437663  61.6586377231068  4.738128318780803  -5.644942469569138  22.67019660057751  43.31762411140912  -25.326720736180036  15.93605272506041  0.000000
1.3499999999999999  0.000000  0.000000  0.000000  -39.235329055645934  10.966866970552354  29.260851329813047  61.7124614031455  4.828537415324934  -5.730987031155278  22.711800991641294  43.229496402254625  -25.362939744789504  16.003050939031183  0.000000
1.365  0.000000  0.000000  0.000000  -39.22772446619569  10.797403770050604  29.208913168827397  61.76477565419224  4.916310354351037  -5.869403181347644  22.802708935023812  43.07154200222884  -25.42764386894945  16.06918671881311  0.000000
1.38  0.000000  0.000000  0.000000  -39.18192127295044  10.574922524746844  29.120422233801573  61.81727090605949  5.001974928631729  -6.068613054518267  22.954492864041296  42.829821711833645  -25.529412638606015  16.137426189501067  0.000000
1.395  0.000000  0.000000  0.000000  -39.10290888401791  10.292207401314624  28.996004882895427  61.874647263378066  5.084770104668358  -6.3351808594640575  23.182582177657157  42.48718768758323  -25.679100366992575  16.202866958312907  0.000000
